<svg id="Layer_1" data-name="Layer 1" xmlns="http://www.w3.org/2000/svg" xmlns:xlink="http://www.w3.org/1999/xlink" viewBox="0 0 1000 1000"><defs><style>.cls-1{fill:none;}.cls-2{fill:#192352;}.cls-3{clip-path:url(#clip-path);}.cls-4{fill:#fff;}</style><clipPath id="clip-path"><rect class="cls-1" x="107.01" y="118.97" width="785.98" height="762.05"/></clipPath></defs><rect class="cls-2" x="125.22" y="125.22" width="749.56" height="749.56"/><g class="cls-3"><path class="cls-4" d="M289.43,748.24c0,28.76-22.21,49.64-49.94,49.64-28.28,0-50-21.11-50-48.61,0-28.8,22.19-49.68,50-49.68,28.27,0,49.94,21.15,49.94,48.65m-15.86.52c0-26.16-12.69-44.42-34.08-44.42-23.26,0-34.1,21.93-34.1,44.42,0,26.13,12.68,44.37,34.1,44.37,23.25,0,34.08-21.9,34.08-44.37"/><path class="cls-4" d="M594.39,748.24c0,28.76-22.2,49.64-49.94,49.64-28.28,0-50-21.11-50-48.61,0-28.8,22.2-49.68,50-49.68,28.27,0,49.94,21.15,49.94,48.65m-15.85.52c0-26.16-12.69-44.42-34.09-44.42-23.25,0-34.09,21.93-34.09,44.42,0,26.13,12.69,44.37,34.09,44.37,23.24,0,34.09-21.9,34.09-44.37"/><path class="cls-4" d="M633,749.26h11.89c18,0,21.94-11.33,21.94-22.19,0-8.19-3.7-15.86-12.16-19.55-4.49-1.85-8.72-1.85-14.53-1.85H633Zm21.94,15.33c-5.56-7.93-7.68-10.83-14.54-10.83H633V786c0,2.63,1.06,3.93,4,4.48l10.83,2.38v3.45H605.23v-3.45l9.78-2.38c2.89-.78,4-1.85,4-4.48V711.49c0-2.65-1.06-3.71-4-4.49l-9.78-2.39v-3.44h41.48c8.73,0,14.8.8,19.83,2.64a25.06,25.06,0,0,1,16.11,23c0,11.64-8.72,21.43-23.26,24.83v.53c2.92,1.34,4.5,3.17,14.81,16.67L687.15,786a10.88,10.88,0,0,0,7.14,4.75l9.5,2.11v3.45H681.07c-2.64,0-4-.81-6.34-4Z"/><path class="cls-4" d="M468.6,733.68h4V765.4h-4l-2.38-9.51c-.8-3.45-2.91-4.76-6.08-4.76h-23V786c0,2.64,1.05,3.94,4,4.48L452,792.87v3.45H409.41v-3.45l9.77-2.38c2.91-.78,4-1.84,4-4.48V711.48c0-2.65-1.05-3.7-4-4.48l-9.77-2.38v-3.45h71.87V725h-4l-4.48-14.29c-1.06-3.69-2.64-5-5.82-5H437.15v41h23c3.17,0,5-1.3,6.08-4.75Z"/><path class="cls-4" d="M711.46,796.32v-3.45l9.77-2.38c2.91-.78,4-1.84,4-4.48V711.49c0-2.66-1.06-3.71-4-4.49l-9.77-2.38v-3.45h44.66c12.15,0,20.88,1.59,28,4.76,18,8.2,26.17,25.89,26.17,43.33,0,16.94-6.35,32.78-22.47,41.23-7.4,4-17.71,5.83-31.18,5.83Zm27.74-90.65v81.91c0,3.46.8,4.26,4.24,4.26h11.63c11.09,0,19.28-1.61,25.1-5.83,9.76-7.12,14.26-20.07,14.26-36.47,0-16.12-4.5-32-17.7-39.63-5.54-3.19-12.68-4.24-23.79-4.24Z"/><path class="cls-4" d="M326.69,792.87v3.45H293.14v-3.45l8.44-2.1a13.11,13.11,0,0,0,7.4-4.23l29.07-36.47L309,711.49a11.85,11.85,0,0,0-7.14-4.77l-7.93-2.1v-3.45h41.76v3.45l-9,1.83c-3.18.55-2.38,1.86-.8,4l21.41,30.66h.52l21.94-30.66c1.58-2.12,2.12-2.91-.78-3.71l-8.47-2.1v-3.45h33.56v3.45l-8.45,2.1a13.15,13.15,0,0,0-7.4,4.23l-27.48,34.64L381.38,786a12.13,12.13,0,0,0,7.14,4.76l7.94,2.1v3.45H354.7v-3.45l9-1.83c3.18-.55,2.65-1.58,1.06-3.73l-23.26-32.76H341l-23.51,32.53c-1.6,2.11-2.13,2.87.78,3.69Z"/><path class="cls-4" d="M226.59,656.4c-2.63,2.63-6.57,4.38-12.07,4.38-4.79,0-9.24-1.51-12.25-4.52-4.1-4.1-3.91-9.34-3.91-14.94V614.86h5.39v28.43c0,3.59-.1,7.1,2.67,9.88a11.6,11.6,0,0,0,8.3,3,10.7,10.7,0,0,0,7.68-2.82c3.1-3.1,2.91-6.46,2.91-14.61V614.86h5.3v22.45c0,8.53.36,14.71-4,19.09"/><polygon class="cls-4" points="274.48 659.93 252.76 622.99 252.9 659.93 247.94 659.93 247.94 614.86 253.48 614.86 275.27 652.01 275.13 614.86 280.08 614.86 280.08 659.93 274.48 659.93"/><rect class="cls-4" x="298.88" y="614.86" width="5.43" height="45.07"/><polygon class="cls-4" points="338.02 659.93 331.81 659.93 316.27 614.86 321.92 614.86 335.07 654.65 348.6 614.86 353.86 614.86 338.02 659.93"/><polygon class="cls-4" points="366.13 659.93 366.13 614.86 390.62 614.86 390.62 619.36 371.43 619.36 371.43 634.24 389.45 634.24 389.45 638.61 371.43 638.61 371.43 655.3 391.16 655.3 391.16 659.93 366.13 659.93"/><path class="cls-4" d="M425.42,621.65c-2.58-2.59-5.93-2.48-9.61-2.48h-5V636h1.8c4.54,0,9.44.24,12.54-2.86a8.23,8.23,0,0,0,2.32-5.87,8.08,8.08,0,0,0-2.06-5.63m4.92,38.28-5.17-11.69c-3.21-7.18-4.67-7.92-11.2-7.92h-3.15v19.61H405.5V614.86h9.73c6,0,10.55,0,14.1,3.5a12.31,12.31,0,0,1,3.51,9,10.88,10.88,0,0,1-2.8,7.75,12.13,12.13,0,0,1-7.23,3.55,5.93,5.93,0,0,1,3.75,1.8c1.23,1.23,2.13,3.09,3.44,6l6,13.42Z"/><rect class="cls-4" x="488.64" y="614.86" width="5.42" height="45.07"/><polygon class="cls-4" points="525 619.36 525 659.93 519.57 659.93 519.57 619.36 506.19 619.36 506.19 614.86 538.35 614.86 538.35 619.36 525 619.36"/><polygon class="cls-4" points="564.29 642.12 564.29 659.93 558.94 659.93 558.94 642.12 544.64 614.86 550.83 614.86 561.94 636 572.73 614.86 578.6 614.86 564.29 642.12"/><path class="cls-4" d="M629.15,618.61c-8.83,0-14.56,7.46-14.56,18.7s6.38,18.83,14.85,18.83c9.41,0,14.66-8,14.66-19.18,0-11-6.19-18.35-15-18.35m0,42.18c-11.67,0-20.19-9.64-20.19-23.19,0-13.93,8.43-23.59,20.61-23.59,11.79,0,20.13,9.57,20.13,23.18,0,13.95-8.36,23.6-20.55,23.6"/><polygon class="cls-4" points="669.91 619.36 669.91 634.23 687.34 634.23 687.34 638.61 669.91 638.61 669.91 659.93 664.53 659.93 664.53 614.86 688.46 614.86 688.46 619.36 669.91 619.36"/><path class="cls-4" d="M446.92,625.86c0-6.93,5.56-11.85,13.7-11.85s12.2,4.25,12.6,4.69l-2.64,3.2a16.08,16.08,0,0,0-9.6-3.43c-5.75,0-8.94,3-8.94,7.08a5.81,5.81,0,0,0,2.12,4.56,25.39,25.39,0,0,0,6.23,3.54c3,1.38,7.15,2.94,9.93,5.83a11.28,11.28,0,0,1,3.38,8.12c0,7.5-5.21,13.21-14.56,13.21A20.89,20.89,0,0,1,445.66,656l2.49-3.66c1.28.95,6.28,3.92,10.86,3.92,6.78,0,9.32-3.71,9.32-8.2A6.89,6.89,0,0,0,466,643c-2.09-2-5.28-3.38-8.33-4.78s-5.94-2.83-8-5a10.22,10.22,0,0,1-2.71-7.3"/><path class="cls-4" d="M653.94,310c0-5.66-1.92-10.23-6.07-12.67-2.6-1.52-6.11-2-10.45-2H605.87V359h34.34c7.91,0,12.57,1.78,13,8.88H654Z"/><path class="cls-4" d="M658.34,310c0-5.66,1.92-10.23,6.08-12.67,2.6-1.52,6.11-2,10.45-2h31.77V359H672.08c-7.92,0-12.58,1.78-13,8.88h-.76Z"/><path class="cls-4" d="M713.24,300v67.36H664.45l-.55,1.38c-.86,2.1-2.38,4-7.71,4s-6.84-1.94-7.69-4l-.56-1.38H599.23V300h-4.4V302l-4.23-1.3a4,4,0,1,0-3.83,5.13,3.92,3.92,0,0,0,2.54-.93l5.52,1.7v5.42l-4.16-.74A4,4,0,1,0,587,316.9a4,4,0,0,0,2.9-1.25l4.94.89v5.52l-4.33-.2a4,4,0,1,0-.19,4.41l4.52.19v6l-4.43.16a4,4,0,1,0,.15,4.41l4.28-.16v5.53l-4.85.84a4,4,0,0,0-2.91-1.28,4,4,0,1,0,3.67,5.61l4.09-.7v5.42l-5.3,1.63A3.92,3.92,0,0,0,587,353a4,4,0,1,0,3.83,5.14l4-1.23v5.25L589,364.68a3.94,3.94,0,0,0-2.2-.67,4,4,0,1,0,3.94,4.72l4.12-1.78v4.8h50.4c2,3.56,5.59,5.42,11,5.42s8.92-1.86,11-5.42h50.48V300Z"/><path class="cls-4" d="M623,277.52c-10.19,0-18.45,1.59-18.45,3.54s8.26,3.54,18.45,3.54,18.44-1.59,18.44-3.54-8.26-3.54-18.44-3.54"/><path class="cls-4" d="M648.43,255.43l-10.64,7.48-.1.76,2.53,1.13c.51.26.51.65.26.9l-6.7,5.64-.63,0-4.74-7c-.33-.45-.21-.9.37-1l3.18-.53V262l-8.25-11.65h-1.35L614.11,262v.8l3.19.53c.56.09.68.54.36,1l-4.75,7-.63,0L606,265.7c-.26-.25-.25-.64.25-.9l2.53-1.13-.09-.76-11.1-7.48-.9.35,6.52,19.89c3.3-1.48,10.89-2.53,19.79-2.57s16.47,1.09,19.78,2.57l6.51-19.89Z"/><path class="cls-4" d="M656.12,410.94c-10.19,0-18.46,1.59-18.46,3.54s8.27,3.54,18.46,3.54,18.44-1.59,18.44-3.54-8.26-3.54-18.44-3.54"/><path class="cls-4" d="M681.51,388.84l-10.64,7.49-.09.75,2.53,1.15c.49.24.49.65.24.89l-6.69,5.64-.63-.05-4.74-7c-.32-.44-.21-.9.36-1l3.18-.52v-.8l-8.24-11.65h-1.36l-8.24,11.65v.8l3.18.52c.58.1.7.56.36,1l-4.73,7-.64.05-6.25-5.64c-.26-.24-.25-.65.25-.89l2.53-1.15-.08-.75-11.1-7.49-.9.36,6.51,19.89c3.32-1.48,10.91-2.53,19.79-2.57s16.49,1.09,19.79,2.57l6.52-19.89Z"/><path class="cls-4" d="M689.11,277.52c-10.18,0-18.43,1.59-18.43,3.54s8.25,3.54,18.43,3.54,18.45-1.59,18.45-3.54-8.26-3.54-18.45-3.54"/><path class="cls-4" d="M714.51,255.43l-10.64,7.48-.1.76,2.53,1.13c.51.26.51.65.26.9l-6.7,5.64-.63,0-4.73-7c-.34-.45-.21-.9.36-1l3.17-.53V262l-8.24-11.65h-1.35L680.18,262v.8l3.2.53c.56.09.68.54.35,1l-4.73,7-.64,0-6.25-5.72c-.25-.24-.25-.64.26-.89l2.53-1.06-.1-.76-11.09-7.48-.9.35,6.51,19.89c3.3-1.48,10.9-2.53,19.79-2.57s16.48,1.09,19.79,2.57l6.51-19.89Z"/><path class="cls-2" d="M614,305.38a5.72,5.72,0,0,1,4.1,1.25,4.07,4.07,0,0,1,1.22,2.88c0,3.5-2.66,5-5.91,5H609.8V314c1-.09,1.14-.19,1.14-1.71v-4.64c0-1.5-.12-1.61-1-1.69v-.55Zm-.68,6.9c0,1.25.31,1.48,1,1.48,1.21,0,2.43-1.32,2.43-3.82,0-3-1.53-3.86-2.73-3.86a1.37,1.37,0,0,0-.6.1c-.07,0-.08.36-.08.71Z"/><path class="cls-2" d="M630,309.84a4.6,4.6,0,0,1-4.75,4.89,4.51,4.51,0,0,1-4.67-4.66,4.72,4.72,0,0,1,4.88-4.9,4.45,4.45,0,0,1,4.54,4.67m-6.82-.25c0,2.55,1,4.4,2.34,4.4,1.21,0,1.87-1.16,1.87-3.71,0-2.81-1-4.38-2.22-4.38s-2,1.24-2,3.69"/><path class="cls-2" d="M642.37,305.38v.55c-1.07.1-1.12.15-1.07,1.63l.13,4.7c.05,1.56.08,1.61,1.09,1.7v.55h-4.4V314c1-.09,1.09-.14,1.07-1.7l0-4.94h-.06l-2.71,7h-.76l-2.57-6.54h0l-.1,3.12a14.75,14.75,0,0,0,0,2.31c0,.52.36.65,1.27.72v.55h-3.47V314c.68,0,.94-.2,1-.72s.15-1.18.22-2.45l.15-2.84c.1-1.77,0-1.92-1.12-2v-.55h3.3l2.47,5.56,2.14-5.56Z"/><path class="cls-2" d="M646.93,312.26c0,1.53.12,1.62,1.09,1.71v.54h-4.55V314c1-.09,1.08-.18,1.08-1.71v-4.64c0-1.5-.12-1.61-1.08-1.69v-.55H648v.55c-1,.08-1.09.19-1.09,1.69Z"/><path class="cls-2" d="M624.32,331.46h-1.21l-5.19-6.63h0v2.59a23.89,23.89,0,0,0,.11,2.68c.08.49.46.67,1.38.72v.55h-3.49v-.55c.62,0,1-.23,1-.72a23.89,23.89,0,0,0,.11-2.68v-2.59c0-1,0-1.22-.31-1.61a1.35,1.35,0,0,0-1.06-.44v-.55h3.1l4.67,5.83h0v-1.88a24.76,24.76,0,0,0-.1-2.68c-.08-.49-.46-.67-1.38-.72v-.55h3.57v.55c-.7,0-1.06.23-1.13.72a23.74,23.74,0,0,0-.11,2.68Z"/><path class="cls-2" d="M630,331.46c-1-2.53-2.29-6-2.79-7.32s-.74-1.27-1.42-1.36v-.55h4.54v.55l-.48.05c-.52.07-.52.2-.37.69.26.78,1.37,3.54,1.89,4.92.43-1.19,1.33-3.88,1.56-4.53.3-.86.21-1-.43-1.08l-.42-.05v-.55h3.4v.55c-.8.1-1,.17-1.55,1.45-.07.19-1.79,4.37-2.84,7.23Z"/><path class="cls-2" d="M636.34,328.47c.29.82,1.13,2.38,2.5,2.38a1.25,1.25,0,0,0,1.29-1.39c0-.83-.54-1.3-1.4-1.69l-.22-.1c-1.15-.54-2.45-1.26-2.45-2.76s1.15-2.88,3.35-2.88a5.09,5.09,0,0,1,1.3.16c.32.09.55.14.73.2.06.55.15,1.24.3,2.19l-.61.1c-.31-.93-.8-1.93-1.91-1.93A1.21,1.21,0,0,0,638,324c0,.7.55,1.11,1.45,1.52l.31.14c1.29.59,2.41,1.3,2.41,2.94s-1.39,3-3.58,3a5.37,5.37,0,0,1-1.51-.24,7.52,7.52,0,0,1-.88-.34c-.12-.65-.3-1.4-.47-2.35Z"/><path class="cls-2" d="M618.07,346c0,1.52.11,1.62,1.08,1.7v.55H614.6v-.55c1-.08,1.08-.18,1.08-1.7v-4.64c0-1.51-.11-1.61-1.08-1.69v-.55h4.55v.55c-1,.08-1.08.18-1.08,1.69Z"/><path class="cls-2" d="M623.63,346.16c0,.73,0,1.08.28,1.2a2.41,2.41,0,0,0,1,.13,1.72,1.72,0,0,0,1.34-.41,3.58,3.58,0,0,0,.69-1.39l.61.1c-.09.53-.38,2-.5,2.43h-7v-.55c1.06-.08,1.17-.18,1.17-1.7v-4.64c0-1.51-.11-1.61-1-1.69v-.55h4.57v.55c-1,.08-1.13.18-1.13,1.69Z"/><path class="cls-2" d="M631.47,346.16c0,.73,0,1.08.28,1.2a2.39,2.39,0,0,0,1,.13,1.73,1.73,0,0,0,1.35-.41,3.88,3.88,0,0,0,.69-1.39l.61.1c-.09.53-.38,2-.51,2.43h-7v-.55c1.06-.08,1.18-.18,1.18-1.7v-4.64c0-1.51-.12-1.61-1.07-1.69v-.55h4.57v.55c-1,.08-1.12.18-1.12,1.69Z"/><path class="cls-2" d="M638.18,348.32c-1-2.53-2.29-6-2.79-7.32s-.74-1.28-1.42-1.36v-.55h4.54v.55l-.49.05c-.51.06-.51.19-.36.68.26.79,1.36,3.56,1.88,4.93.44-1.2,1.34-3.88,1.56-4.54.3-.86.21-1-.42-1.08l-.42,0v-.55h3.4v.55c-.8.1-1,.16-1.55,1.45-.08.19-1.79,4.37-2.85,7.23Z"/><path class="cls-2" d="M675.91,305.38v.55c-1.07.1-1.12.15-1.09,1.63l.14,4.7c0,1.56.07,1.61,1.09,1.7v.55h-4.4V314c1.05-.09,1.1-.14,1.08-1.7l0-4.94h-.06l-2.71,7h-.76l-2.56-6.54h0l-.11,3.12a18.56,18.56,0,0,0,0,2.31c0,.52.36.65,1.28.72v.55H664.3V314c.67,0,1-.2,1-.72s.15-1.18.22-2.45l.16-2.84c.1-1.77,0-1.92-1.13-2v-.55h3.31l2.45,5.56,2.15-5.56Z"/><path class="cls-2" d="M680.47,312.26c0,1.53.11,1.62,1.08,1.71v.54H677V314c1-.09,1.09-.18,1.09-1.71v-4.64c0-1.5-.13-1.61-1.09-1.69v-.55h4.55v.55c-1,.08-1.08.19-1.08,1.69Z"/><path class="cls-2" d="M690.92,314.61h-1.21l-5.2-6.63h0v2.58a22.65,22.65,0,0,0,.12,2.68c.07.5.45.68,1.38.73v.54h-3.5V314c.62,0,1-.23,1-.73a18.79,18.79,0,0,0,.12-2.68V308c0-1,0-1.22-.31-1.61a1.32,1.32,0,0,0-1.07-.44v-.55h3.1l4.68,5.83h0v-1.88a24.12,24.12,0,0,0-.11-2.69c-.07-.48-.46-.67-1.39-.71v-.55h3.59v.55c-.69,0-1.07.23-1.14.71a24.12,24.12,0,0,0-.11,2.69Z"/><path class="cls-2" d="M696.8,314l.41-.06c.53-.07.55-.21.37-.72l-.5-1.43h-2.31l-.42,1.35c-.19.6-.19.74.46.81l.41.05v.54H692V314c.71-.1.92-.16,1.39-1.34l2.81-7.26,1-.2,1,2.66c.61,1.66,1.21,3.33,1.74,4.75.45,1.23.71,1.3,1.4,1.39v.54H696.8ZM695,310.91h1.8l-.89-2.68h0Z"/><path class="cls-2" d="M675.8,329.12c0,1.52.11,1.62,1.29,1.7v.54h-4.92v-.54c1.13-.08,1.23-.18,1.23-1.7V323h-.24c-.93,0-1.31.17-1.53.42a3.45,3.45,0,0,0-.53,1.36h-.59c.06-1.18.15-2.15.17-2.86h.44c.21.32.36.34.73.34h5.6c.37,0,.43-.08.66-.34h.44c0,.58.09,1.78.15,2.82l-.61,0a3.58,3.58,0,0,0-.58-1.45,1.94,1.94,0,0,0-1.37-.33h-.34Z"/><path class="cls-2" d="M683.15,329.12c0,1.52.11,1.62,1.08,1.7v.54h-4.55v-.54c1-.08,1.08-.18,1.08-1.7v-4.64c0-1.51-.11-1.61-1.08-1.7v-.55h4.55v.55c-1,.09-1.08.19-1.08,1.7Z"/><path class="cls-2" d="M694.83,326.69a4.6,4.6,0,0,1-4.74,4.89,4.51,4.51,0,0,1-4.69-4.66,4.72,4.72,0,0,1,4.87-4.89,4.45,4.45,0,0,1,4.56,4.66m-6.81-.24c0,2.54,1,4.4,2.32,4.4,1.22,0,1.88-1.17,1.88-3.72,0-2.81-1-4.38-2.22-4.38s-2,1.24-2,3.7"/><path class="cls-2" d="M680,339.09v.55c-1.08.1-1.13.15-1.08,1.63L679,346c0,1.56.07,1.61,1.08,1.7v.55h-4.4v-.55c1.06-.09,1.1-.14,1.09-1.7l0-4.94h-.06l-2.71,7h-.75l-2.58-6.54h0l-.09,3.11a16.82,16.82,0,0,0,0,2.32c.06.52.36.65,1.27.72v.55h-3.47v-.55c.68-.06.95-.2,1-.72s.14-1.18.21-2.45l.17-2.84c.09-1.77,0-1.92-1.13-2v-.55h3.3l2.46,5.56,2.15-5.56Z"/><path class="cls-2" d="M682.11,341.34c0-1.52-.11-1.62-1-1.7v-.55h6.65c0,.24.08,1.26.16,2.31l-.62.05a2.74,2.74,0,0,0-.52-1.31c-.23-.24-.69-.32-1.44-.32h-.23c-.54,0-.57,0-.57.49V343h.71c1.2,0,1.25-.08,1.39-1.15h.61v3.31h-.61c-.14-1.23-.19-1.31-1.39-1.31h-.71v2.29c0,.72,0,1.08.29,1.2a2.2,2.2,0,0,0,1,.13,2.13,2.13,0,0,0,1.49-.42,4.24,4.24,0,0,0,.69-1.45l.62.1a21.73,21.73,0,0,1-.49,2.5h-7.15v-.54c1.07-.1,1.18-.19,1.18-1.71Z"/><path class="cls-2" d="M693.5,347.68l.41-.06c.53-.07.55-.22.37-.72l-.5-1.43h-2.3l-.42,1.35c-.2.6-.2.74.45.81l.41.05v.54h-3.27v-.54c.72-.1.93-.16,1.39-1.34l2.81-7.27,1-.19.95,2.65c.61,1.67,1.21,3.34,1.74,4.76.46,1.23.7,1.3,1.4,1.39v.54H693.5Zm-1.79-3.06h1.8l-.89-2.68h0Z"/><path class="cls-4" d="M643.45,461.22a3.67,3.67,0,1,1-3.68-3.68,3.67,3.67,0,0,1,3.68,3.68"/><path class="cls-4" d="M680.7,467.33a3.67,3.67,0,1,1-3.67-3.67,3.67,3.67,0,0,1,3.67,3.67"/><path class="cls-4" d="M659.65,201.87A3.68,3.68,0,1,1,656,198.2a3.68,3.68,0,0,1,3.68,3.67"/><path class="cls-4" d="M747.06,236.25a3.67,3.67,0,1,1-3.52-3.82,3.68,3.68,0,0,1,3.52,3.82"/><path class="cls-4" d="M562.84,393.93a11.17,11.17,0,0,1,2.12,6.45c0,2.57-.86,4.65-5.46,7.84l-13.26,9.45-2.44-3.52,13.8-9.83c2.35-1.62,3.35-2.8,3.35-4.66a6.56,6.56,0,0,0-1.28-3.68,5.41,5.41,0,0,0-4.54-2.53c-1.36,0-2.82,1-5.44,2.78l-12.47,8.46-2.4-3.45,11.87-8c3.3-2.32,5.94-3.91,8.38-3.91,3.57,0,6.17,2.33,7.77,4.64"/><polygon class="cls-4" points="520.45 368.03 545.68 359.18 547.09 363.01 532.65 380.65 550.89 373.42 552.25 377.15 527.31 386.73 525.91 382.9 540.42 365.25 521.81 371.75 520.45 368.03"/><rect class="cls-4" x="516.84" y="345.95" width="26.7" height="4.28" transform="translate(-45.37 81.63) rotate(-8.44)"/><polygon class="cls-4" points="515.89 316.09 516 311.66 542.35 322.37 542.17 326.77 515.1 334.84 515.13 330.4 537.08 324.25 515.89 316.09"/><path class="cls-4" d="M540,256.35c-3.78,0-5.52,2.17-7.94,6.52l-3.13,5.62,23.53,12.76,2-3.67-9.78-5.33.57-1.06c1.65-3,2.21-3.43,6.42-3.08l7.61.68,2.18-4-8.78-.75a12.31,12.31,0,0,0-4.29,0,4.33,4.33,0,0,0-1.26.65,7.89,7.89,0,0,0,.29-1.43,6.59,6.59,0,0,0-.33-2.18,6.72,6.72,0,0,0-3.32-3.77,7.85,7.85,0,0,0-3.8-1m-4.75,8.09c1.56-2.85,2.68-3.92,4.33-3.92a4.68,4.68,0,0,1,2.17.58,4.3,4.3,0,0,1,2,2.47,4.21,4.21,0,0,1,.16,1.16c0,1.58-.9,3.18-1.83,4.85l-.54,1-7.53-4Z"/><rect class="cls-4" x="576.89" y="214.58" width="4.27" height="26.7" transform="translate(-19.86 396.92) rotate(-37.24)"/><polygon class="cls-4" points="583.89 208.2 601.16 199.21 602.84 202.45 596.13 205.95 606.77 226.4 602.98 228.37 592.34 207.93 585.57 211.44 583.89 208.2"/><polygon class="cls-4" points="626.98 191.09 631.48 189.83 627.86 207.69 630.79 217.84 626.72 219.01 623.85 208.95 611.17 195.72 615.56 194.44 624.69 203.95 626.98 191.09"/><polygon class="cls-4" points="708.45 227.59 722.01 204.59 734.77 212.1 732.92 215.25 723.8 209.88 720.06 216.24 728.63 221.29 726.82 224.38 718.24 219.33 712.11 229.74 708.45 227.59"/><polygon class="cls-4" points="777.07 287.08 786.79 275.44 788.3 280.05 781.07 288.33 791.82 290.75 793.25 295.08 778.54 291.53 768.09 304.05 766.6 299.52 774.49 290.33 762.68 287.64 761.26 283.26 777.07 287.08"/><polygon class="cls-4" points="769.43 313.31 796.05 311.14 797.25 325.91 793.61 326.2 792.75 315.67 785.4 316.27 786.19 326.19 782.64 326.48 781.83 316.55 769.78 317.54 769.43 313.31"/><path class="cls-4" d="M781.2,337.12a13.76,13.76,0,0,0-8.16,2.47,11.57,11.57,0,0,0-4.76,9.56c0,9,8.48,12.64,14.85,12.64a13.58,13.58,0,0,0,8.06-2.42,11.82,11.82,0,0,0,4.75-9.73c0-7.89-7.24-12.52-14.74-12.52m2.11,20.35c-5.2,0-11.28-2.83-11.28-8.08a7.49,7.49,0,0,1,3-6.15,10,10,0,0,1,6-1.77c2.65,0,7.43.75,9.93,4.21a6.65,6.65,0,0,1,1.3,4,7.47,7.47,0,0,1-3,6.07,10,10,0,0,1-5.88,1.68"/><path class="cls-4" d="M765.7,248.24a15.69,15.69,0,0,0-8.34,2.6c-5.13,3.26-7,7.92-7,11.33a11.77,11.77,0,0,0,1.86,6.34,11.61,11.61,0,0,0,10,5.58,15.88,15.88,0,0,0,8.41-2.67c3.3-2.09,7-6,7-11.25a12.06,12.06,0,0,0-11.91-11.93M761.54,270a6.83,6.83,0,0,1-6-3.37,7.12,7.12,0,0,1-1.15-3.8c0-3,1.91-6.11,5.41-8.34a12.38,12.38,0,0,1,6.63-2.18,6.88,6.88,0,0,1,6.06,3.33,7.52,7.52,0,0,1,1.21,4.07c0,2.95-1.87,5.85-5.26,8a13,13,0,0,1-6.86,2.31"/><path class="cls-4" d="M692.85,193.23c-5.57,0-10.41,3.75-12.37,10.41a15.67,15.67,0,0,0-.7,4.36,13.53,13.53,0,0,0,1.54,6.78,11.8,11.8,0,0,0,10.43,6.06,11.34,11.34,0,0,0,5.52-1.39c4.51-2.46,7.49-8.18,7.49-13.65a13.54,13.54,0,0,0-1.52-6.54,11.71,11.71,0,0,0-10.39-6m-1.37,23.82a7.24,7.24,0,0,1-6.29-3.79,10.12,10.12,0,0,1-1.09-4.79c0-4.78,3.18-11.5,9-11.5,3.27,0,7.36,2.44,7.36,8.47,0,3.85-2.71,11.61-9,11.61"/><polygon class="cls-4" points="544.95 290.08 548.53 291.09 544.49 305.75 518.65 298.67 523.07 283.84 526.58 284.83 523.32 295.52 530.45 297.47 533.2 287.76 536.64 288.74 533.9 298.42 541.96 300.63 544.95 290.08"/><path class="cls-4" d="M551.72,234.29c3.71-4.16,7.5-3.88,7.5-3.88l.65,3.53a7.92,7.92,0,0,0-5.21,2.66,5.21,5.21,0,0,0-1.5,3.33,2.89,2.89,0,0,0,1,2.23c1.85,1.65,5-.18,7-1a15.85,15.85,0,0,1,5.86-1.51,7,7,0,0,1,4.8,1.83,7.48,7.48,0,0,1,2.67,5.67,9.22,9.22,0,0,1-2.66,6.27,13.4,13.4,0,0,1-8,4.23l-.91-3.57a11.33,11.33,0,0,0,6-3,5.22,5.22,0,0,0,1.46-3.39,3.51,3.51,0,0,0-1.25-2.68,3.33,3.33,0,0,0-2.36-.8c-1.71,0-3.78,1-5.46,1.69-3.26,1.34-6.67,2.42-9.73-.32a6.7,6.7,0,0,1-2.4-5.09,9.33,9.33,0,0,1,2.55-6.17"/><path class="cls-4" d="M762.34,371.68l10.09,4.57-.5,1.13c-1.37,3.1-1.9,3.61-6.11,3.64h-7.64l-1.82,4.12,8.81,0a12.42,12.42,0,0,0,4.25-.42,4,4,0,0,0,1.13-.65c0,.22-.1.44-.1.68a6.89,6.89,0,0,0,.54,2.8c1.21,2.82,4.51,4.2,6.9,4.19,4.25,0,5.87-2.54,8-7.22l2.47-5.72L764,367.84Zm15.77,15.83a4.4,4.4,0,0,1-4-2.68,4.31,4.31,0,0,1-.27-1.54,12.23,12.23,0,0,1,1.43-4.57l.45-1,7.7,3.46-.86,2.06c-1.43,3.26-2.37,4.3-4.42,4.3"/><path class="cls-4" d="M748.28,396.94c-2.77,3.46-4.87,6.57-4.87,10.57a13.32,13.32,0,0,0,5.44,10.38,13.66,13.66,0,0,0,8.54,3.19c3.71,0,6.7-1.11,11.32-6.92l4.21-5.3L752.06,392.2ZM757.8,417a9.72,9.72,0,0,1-6.19-2.47c-2.1-1.67-4.33-4.29-4.33-7.63,0-2.32,1.25-4.53,3.19-6.95l1.77-2.23,15.25,12.18-1.16,1.46c-2.84,3.54-4.77,5.64-8.53,5.64"/><path class="cls-4" d="M809.13,329.43c0-84.22-68.62-152.73-153-152.73s-153,68.51-153,152.73a152.6,152.6,0,0,0,66.75,126.15,35.93,35.93,0,0,0,47.77,24.17,151.84,151.84,0,0,0,17.14,4.56,72.31,72.31,0,0,1-6.25,12.85l.13,0-.13.07,3.18,3.19a5.7,5.7,0,1,1,2.73,10.71,8.1,8.1,0,0,1-6.43-3.65,23.82,23.82,0,0,0-.74,6c0,11,11.95,23.51,28.56,28.78,16.6-5.16,28.57-17.78,28.57-28.77a20,20,0,0,0-.76-6c-1.27,1.53-3.33,3.65-6.45,3.65a5.71,5.71,0,0,1,0-11.42,5.59,5.59,0,0,1,3,.87l3.1-3.1a.31.31,0,0,0,.11,0,73.28,73.28,0,0,1-3.89-11.72c27.5-3.69,50.71-15.34,69.17-34.74h0a151.46,151.46,0,0,0,60.41-121.58M604.69,477.91A31.58,31.58,0,0,1,577,431.25c1.61,1.48,3.35,3,5.15,4.54a24.86,24.86,0,0,0-2.41,10.65c0,9.47,4.78,17.29,13.82,22.63a118.85,118.85,0,0,0,17.29,8.24,31.77,31.77,0,0,1-6.19.6m51.47-46a102.74,102.74,0,0,1-19.34-1.84,35.87,35.87,0,0,0-41.69-18.35,102.45,102.45,0,1,1,61,20.19m22.8,1.82c-3.07,4.39-4.9,10.49-5.44,16.66a158.38,158.38,0,0,1-26.19-9.36c1.46-2.83,5.65-4.83,8.83-4.83a107.11,107.11,0,0,0,22.8-2.47m-32.49,2a11.34,11.34,0,0,0-3.1,3.41c-3.87-1.88-8.74-4.31-11.92-6.09a131.17,131.17,0,0,0,15,2.68m-41.78-21.06a31.71,31.71,0,0,1,26.23,14.09,102.17,102.17,0,0,1-14.91-5l0,0-.15-.09a25.33,25.33,0,0,0-31.27,8c-1.93-1.08-3.86-2.2-5.76-3.38a31.45,31.45,0,0,1,25.88-13.63m72.57,80.53c-5.65,0-10.27,4-10.27,10.12a10,10,0,0,0,10.27,10.11,9.76,9.76,0,0,0,2.43-.34c-1.16,8.48-11.05,18-23.79,22.24-12.64-4.23-22.52-13.8-23.83-22.24a9.84,9.84,0,0,0,2.44.34c6.08,0,10.26-4.25,10.26-10.11a10.07,10.07,0,0,0-10-10.1,65.14,65.14,0,0,0,4.6-10.11,120.05,120.05,0,0,0,20.35,1.89,151,151,0,0,0,15.37-.8,72.62,72.62,0,0,0,2.81,9.05c-.21,0-.4-.05-.6-.05m-17.58-12.49c-20.52,0-46.12-7-63.71-17.36-5.32-3.14-11.68-9-11.68-19a20.81,20.81,0,0,1,1.46-7.64c6.57,5.42,13.35,10.51,17.62,12.84a4.71,4.71,0,0,0,2.68.8,5,5,0,0,0,4.94-5,4.89,4.89,0,0,0-3-4.62c-3.65-1.58-11.26-4.73-19.46-9A20.66,20.66,0,0,1,605,425.61a20.31,20.31,0,0,1,8.79,2l5.63,3.28c17.88,10.91,63.86,38.91,119.39,23.52-21.08,19-47,28.4-79.15,28.4m86.11-35A121,121,0,0,1,678,451.5c.65-8.83,4.31-18.28,9.89-20a107,107,0,0,0,75.33-102c0-58.91-48-106.83-107-106.83s-107,47.92-107,106.83A107.14,107.14,0,0,0,590.2,413.5,36.29,36.29,0,0,0,575.09,426c-2-1.33-3.83-2.7-5.58-4.14l-1,1a73,73,0,0,0,5.15,5.35,35.48,35.48,0,0,0-5,18.19c0,1,.06,2.05.15,3.06a148.32,148.32,0,0,1-61.13-120C507.7,247.58,574.3,181,656.16,181S804.6,247.58,804.6,329.43a147.27,147.27,0,0,1-58.81,118.3"/></g></svg>